
<svg width="115" height="40" viewBox="0 0 115 40" fill="none" xmlns="http://www.w3.org/2000/svg">
  <path d="M34.7166 10.9091H40L33.642 29H28.892L24.7557 16.1932L20.6477 29H15.8977L9.53977 10.9091H14.8232L18.3068 24.1705L22.5284 10.9091H27.0114L31.2614 24.1705L34.7166 10.9091Z" fill="#064C9F"/>
  <path d="M49.8885 29.2557C48.3612 29.2557 47.0028 28.9574 45.8135 28.3608C44.6336 27.7642 43.7086 26.9034 43.0384 25.7784C42.3683 24.6439 42.0332 23.2992 42.0332 21.7443C42.0332 20.2083 42.3683 18.8826 43.0384 17.767C43.7086 16.642 44.6336 15.7812 45.8135 15.1847C47.0028 14.5881 48.3612 14.2898 49.8885 14.2898C51.4158 14.2898 52.7694 14.5881 53.9493 15.1847C55.1292 15.7812 56.0541 16.642 56.7243 17.767C57.4038 18.8826 57.7436 20.2083 57.7436 21.7443C57.7436 23.2992 57.4038 24.6439 56.7243 25.7784C56.0541 26.9034 55.1292 27.7642 53.9493 28.3608C52.7694 28.9574 51.4158 29.2557 49.8885 29.2557ZM49.8885 25.2244C50.7566 25.2244 51.4584 24.892 51.9936 24.2273C52.5288 23.5625 52.7964 22.7017 52.7964 21.6449C52.7964 20.5881 52.5288 19.732 51.9936 19.0767C51.4584 18.4119 50.7566 18.0795 49.8885 18.0795C49.0109 18.0795 48.3043 18.4119 47.7691 19.0767C47.2339 19.732 46.9663 20.5881 46.9663 21.6449C46.9663 22.7017 47.2339 23.5625 47.7691 24.2273C48.3043 24.892 49.0109 25.2244 49.8885 25.2244Z" fill="#064C9F"/>
  <path d="M67.6166 29.2557C66.0893 29.2557 64.7309 28.9574 63.5416 28.3608C62.3617 27.7642 61.4367 26.9034 60.7665 25.7784C60.0964 24.6439 59.7613 23.2992 59.7613 21.7443C59.7613 20.2083 60.0964 18.8826 60.7665 17.767C61.4367 16.642 62.3617 15.7812 63.5416 15.1847C64.7309 14.5881 66.0893 14.2898 67.6166 14.2898C69.1439 14.2898 70.4975 14.5881 71.6774 15.1847C72.8573 15.7812 73.7822 16.642 74.4524 17.767C75.1319 18.8826 75.4717 20.2083 75.4717 21.7443C75.4717 23.2992 75.1319 24.6439 74.4524 25.7784C73.7822 26.9034 72.8573 27.7642 71.6774 28.3608C70.4975 28.9574 69.1439 29.2557 67.6166 29.2557ZM67.6166 25.2244C68.4847 25.2244 69.1865 24.892 69.7217 24.2273C70.2569 23.5625 70.5245 22.7017 70.5245 21.6449C70.5245 20.5881 70.2569 19.732 69.7217 19.0767C69.1865 18.4119 68.4847 18.0795 67.6166 18.0795C66.739 18.0795 66.0324 18.4119 65.4972 19.0767C64.962 19.732 64.6944 20.5881 64.6944 21.6449C64.6944 22.7017 64.962 23.5625 65.4972 24.2273C66.0324 24.892 66.739 25.2244 67.6166 25.2244Z" fill="#064C9F"/>
  <path d="M85.4131 29.2557C83.8858 29.2557 82.5274 28.9574 81.3381 28.3608C80.1582 27.7642 79.2332 26.9034 78.563 25.7784C77.8929 24.6439 77.5578 23.2992 77.5578 21.7443C77.5578 20.2083 77.8929 18.8826 78.563 17.767C79.2332 16.642 80.1582 15.7812 81.3381 15.1847C82.5274 14.5881 83.8858 14.2898 85.4131 14.2898C86.9404 14.2898 88.294 14.5881 89.4739 15.1847C90.6538 15.7812 91.5787 16.642 92.2489 17.767C92.9284 18.8826 93.2682 20.2083 93.2682 21.7443C93.2682 23.2992 92.9284 24.6439 92.2489 25.7784C91.5787 26.9034 90.6538 27.7642 89.4739 28.3608C88.294 28.9574 86.9404 29.2557 85.4131 29.2557ZM85.4131 25.2244C86.2812 25.2244 86.983 24.892 87.5182 24.2273C88.0534 23.5625 88.321 22.7017 88.321 21.6449C88.321 20.5881 88.0534 19.732 87.5182 19.0767C86.983 18.4119 86.2812 18.0795 85.4131 18.0795C84.5355 18.0795 83.8289 18.4119 83.2937 19.0767C82.7585 19.732 82.4909 20.5881 82.4909 21.6449C82.4909 22.7017 82.7585 23.5625 83.2937 24.2273C83.8289 24.892 84.5355 25.2244 85.4131 25.2244Z" fill="#064C9F"/>
  <path d="M103.21 29.2557C101.682 29.2557 100.324 28.9574 99.1346 28.3608C97.9547 27.7642 97.0297 26.9034 96.3595 25.7784C95.6893 24.6439 95.3543 23.2992 95.3543 21.7443C95.3543 20.2083 95.6893 18.8826 96.3595 17.767C97.0297 16.642 97.9547 15.7812 99.1346 15.1847C100.324 14.5881 101.682 14.2898 103.21 14.2898C104.737 14.2898 106.09 14.5881 107.27 15.1847C108.45 15.7812 109.375 16.642 110.045 17.767C110.725 18.8826 111.065 20.2083 111.065 21.7443C111.065 23.2992 110.725 24.6439 110.045 25.7784C109.375 26.9034 108.45 27.7642 107.27 28.3608C106.09 28.9574 104.737 29.2557 103.21 29.2557ZM103.21 25.2244C104.078 25.2244 104.779 24.892 105.315 24.2273C105.85 23.5625 106.117 22.7017 106.117 21.6449C106.117 20.5881 105.85 19.732 105.315 19.0767C104.779 18.4119 104.078 18.0795 103.21 18.0795C102.332 18.0795 101.625 18.4119 101.09 19.0767C100.555 19.732 100.287 20.5881 100.287 21.6449C100.287 22.7017 100.555 23.5625 101.09 24.2273C101.625 24.892 102.332 25.2244 103.21 25.2244Z" fill="#064C9F"/>
</svg>
